<?xml version="1.0" encoding="iso-8859-1"?>
<!-- Generator: Adobe Illustrator 19.0.0, SVG Export Plug-In . SVG Version: 6.00 Build 0)  -->
<svg version="1.1" id="Capa_1" xmlns="http://www.w3.org/2000/svg" xmlns:xlink="http://www.w3.org/1999/xlink" x="0px" y="0px"
	 viewBox="0 0 512 512" style="enable-background:new 0 0 512 512;" xml:space="preserve">
<path style="fill:#50B4A3;" d="M512,256c0,141.385-114.615,256-256,256S0,397.385,0,256S114.615,0,256,0
	c63.457,0,121.511,23.082,166.233,61.315c43.384,37.073,74.23,88.398,85.285,146.725C510.464,223.577,512,239.606,512,256z"/>
<polyline style="fill:#BF764E;" points="217.043,215.665 307.565,191.602 261.731,122.852 162.043,134.31 "/>
<path style="fill:#D69272;" d="M506.295,202.021l-33.102,33.092c-3.877,37.157-20.407,71.837-46.822,98.252l-16.29,16.29
	L224.005,464.53c10.23-62.098-61.962-113.779-110.561-113.779L259.176,198.75c7.586-20.449-6.896-45.056-31.535-45.056
	l-26.582,0.554c-13.208,0.272-25.287-4.577-34.377-12.685c-10.533-9.394-17.074-23.165-16.792-38.452c0-0.293,0.01-0.564,0.01-0.846
	l118.868-4.692c35.715-1.4,70.865,9.32,99.735,30.396l60.573-60.583C467.404,102.557,494.979,149.274,506.295,202.021z"/>
<g>
	<path style="fill:#BF764E;" d="M442.984,81.168l-57.689,57.678c-8.746,8.756-21.849,11.452-33.343,6.875
		c-29.466-11.703-94.041-28.682-185.239-4.148c-0.01-0.01-0.021-0.01-0.031-0.01c-10.533-9.394-17.074-23.165-16.792-38.452
		c0-0.293,0.01-0.564,0.01-0.846l118.868-4.692c28.484-1.118,56.623,5.475,81.492,18.892c11.463,6.186,25.642,4.106,34.858-5.11
		l43.959-43.969C433.883,71.805,438.533,76.403,442.984,81.168z"/>
	<path style="fill:#BF764E;" d="M256.355,213.37c0,0,68.008,52.138,105.82,36.67c0,0-24.817,50.417-118.777,13.751"/>
</g>
<path style="fill:#F6CE9F;" d="M421.125,371.503c0,6.666-2.539,13.333-7.628,18.422c-4.295,4.295-9.718,6.781-15.318,7.45
	c-7.67,0.93-15.653-1.557-21.546-7.45l8.276,8.276c0.428,0.418,0.836,0.867,1.212,1.317c4.284,4.89,6.416,11.003,6.416,17.105
	c0,6.666-2.539,13.343-7.628,18.422c-10.177,10.177-26.687,10.177-36.864,0l-19.738-19.738c5.089,5.089,7.628,11.755,7.628,18.422
	c0,6.677-2.539,13.343-7.628,18.432c-10.177,10.188-26.676,10.188-36.854,0l-25.119-25.109c5.089,5.089,7.638,11.755,7.638,18.422
	c0,6.677-2.55,13.343-7.638,18.432c-10.167,10.167-26.676,10.167-36.854,0l-100.77-100.77l-4.598-4.598l-25.161-25.172
	c-13.208-13.197-23.949-28.484-31.869-45.098c-7.91-16.614-13.019-34.586-14.963-53.154L8.265,191.248
	C24.189,130.142,62.119,77.928,113.089,43.572l57.866,57.866l74.48,83.571l168.061,168.061
	C418.586,358.16,421.125,364.826,421.125,371.503z"/>
<path style="fill:#D6C8B0;" d="M386.124,399.515l-9.488-9.591l8.272,8.273C385.333,398.621,385.746,399.068,386.124,399.515z"/>
<path style="fill:#E9B787;" d="M413.498,353.074l-9.167-9.167c5.088,5.088,7.631,11.756,7.631,18.425s-2.543,13.338-7.631,18.425
	c-0.046,0.046-0.092,0.092-0.138,0.137c-6.311,6.219-16.555,5.937-22.821-0.328L280.876,280.068c-1.84-1.84-4.83-2.138-6.836-0.481
	c-2.302,1.901-2.423,5.316-0.363,7.377l94.474,94.474l7.591,7.591c0.424,0.424,0.837,0.87,1.214,1.318
	c4.285,4.892,6.417,11,6.417,17.107c0,6.669-2.543,13.337-7.631,18.425c-0.047,0.047-0.094,0.094-0.142,0.141
	c-6.311,6.216-16.553,5.932-22.817-0.332L252.286,325.191c-1.84-1.84-4.83-2.138-6.836-0.481c-2.302,1.901-2.423,5.316-0.363,7.376
	l92.82,92.82l-18.771-18.771c5.088,5.088,7.631,11.756,7.631,18.425s-2.543,13.338-7.631,18.425
	c-0.043,0.043-0.086,0.086-0.13,0.129c-6.306,6.227-16.557,5.941-22.824-0.325L195.693,342.297c-1.84-1.84-4.83-2.138-6.836-0.481
	c-2.302,1.901-2.423,5.316-0.363,7.376l93.78,93.78l-25.103-25.091c5.088,5.088,7.631,11.756,7.631,18.425
	c0,6.669-2.543,13.338-7.631,18.425c-0.047,0.047-0.094,0.094-0.142,0.141c-6.311,6.216-16.553,5.932-22.817-0.332L133.715,354.042
	c-1.84-1.84-4.83-2.138-6.836-0.481c-2.302,1.901-2.423,5.316-0.363,7.377l102.96,102.96c0.517,0.517,0.992,0.934,1.449,1.308
	c10.246,8.822,25.702,8.402,35.413-1.308c5.088-5.088,7.631-11.756,7.631-18.425s-2.543-13.338-7.631-18.425l25.117,25.106
	c0.542,0.542,1.024,0.976,1.459,1.32c10.237,8.822,25.686,8.398,35.392-1.32c5.088-5.088,7.631-11.756,7.631-18.425
	s-2.543-13.338-7.631-18.425l19.743,19.743c0.504,0.505,0.957,0.903,1.39,1.256c10.237,8.874,25.743,8.472,35.472-1.256
	c5.088-5.088,7.631-11.756,7.631-18.425c0-6.107-2.132-12.215-6.417-17.107c-0.378-0.447-0.791-0.893-1.214-1.318l-8.272-8.273
	c0.315,0.315,0.604,0.585,0.881,0.831c5.792,5.286,13.369,7.5,20.662,6.617c5.603-0.665,11.023-3.151,15.319-7.448
	c5.088-5.088,7.631-11.756,7.631-18.425S418.586,358.162,413.498,353.074z"/>
<g>
	<circle style="fill:#BF764E;" cx="170.183" cy="404.031" r="27.951"/>
	<path style="fill:#BF764E;" d="M237.004,449.577c-1.089,5.042-3.609,9.831-7.528,13.75c-10.92,10.909-28.611,10.909-39.532,0
		c-10.909-10.92-10.909-28.623,0-39.532c1.066-1.066,2.189-2.017,3.369-2.877c10.932-7.94,26.308-6.978,36.163,2.877
		C236.477,430.785,238.986,440.571,237.004,449.577z"/>
</g>
<g>
	<path style="fill:#D69272;" d="M237.004,449.577c-10.932,7.94-26.308,6.989-36.174-2.865c-7.001-7.001-9.511-16.798-7.517-25.793
		c10.932-7.94,26.308-6.978,36.163,2.877C236.477,430.785,238.986,440.571,237.004,449.577z"/>
	<path style="fill:#D69272;" d="M197.475,410.047c-10.932,7.94-26.308,6.989-36.174-2.865c-7.001-7.001-9.511-16.798-7.517-25.793
		c10.932-7.94,26.308-6.978,36.163,2.877C196.948,391.256,199.457,401.041,197.475,410.047z"/>
</g>
<path style="fill:#E9B787;" d="M128.711,363.133l-4.598-4.598l-25.161-25.172c-13.208-13.197-23.949-28.484-31.869-45.098
	c-7.91-16.614-13.019-34.586-14.963-53.154L8.265,191.248c2.55-9.801,5.674-19.372,9.331-28.682l59.81,59.81
	c0,0-7.607,78.085,58.284,122.201C138.543,347.429,134.687,354.868,128.711,363.133z"/>
<path style="fill:#F6CE9F;" d="M150.015,103.108c0-0.286,0.011-0.561,0.011-0.847l21.061-0.825l29.151,32.714l17.6,19.755
	l-16.649,0.344c-13.2,0.275-25.266-4.56-34.352-12.673c0-0.012-0.012-0.012-0.023-0.012
	C156.283,132.167,149.74,118.394,150.015,103.108z"/>
<path style="fill:#D69272;" d="M200.238,134.149l16.753,5.452l0.847,14.302l-16.649,0.344c-13.2,0.275-25.266-4.56-34.352-12.673
	c0-0.012-0.012-0.012-0.023-0.012c-10.53-9.396-7.06-13.156-6.786-28.442c0-0.286,3.161-0.009,3.161-0.296l7.898-11.389
	L200.238,134.149z"/>
<g>
	<path style="fill:#BF764E;" d="M171.087,101.436l28.488,12.74l0.662,19.973c-10.69,1.867-21.828,4.308-33.401,7.425
		c-0.005-0.001-0.009-0.002-0.014-0.003c-6.838-6.098-11.988-14.399-14.723-23.654c-2.331-7.89,3.368-15.873,11.589-16.193
		L171.087,101.436z"/>
	<circle style="fill:#BF764E;" cx="130.654" cy="364.502" r="27.951"/>
</g>
<path style="fill:#D69272;" d="M157.947,370.519c-10.932,7.94-26.308,6.989-36.174-2.865c-7.001-7.001-9.511-16.798-7.517-25.793
	c10.932-7.94,26.308-6.978,36.163,2.877C157.42,351.727,159.929,361.513,157.947,370.519z"/>
<path style="fill:#F64C4C;" d="M507.517,208.039L391.502,92.035l30.73-30.72C465.617,98.388,496.462,149.713,507.517,208.039z"/>
<polygon style="fill:#313B57;" points="162.199,79.172 24.033,217.339 0,193.306 0,138.209 110.613,27.596 "/>
<g>
</g>
<g>
</g>
<g>
</g>
<g>
</g>
<g>
</g>
<g>
</g>
<g>
</g>
<g>
</g>
<g>
</g>
<g>
</g>
<g>
</g>
<g>
</g>
<g>
</g>
<g>
</g>
<g>
</g>
</svg>
