<?xml version="1.0" encoding="iso-8859-1"?>
<!-- Generator: Adobe Illustrator 19.0.0, SVG Export Plug-In . SVG Version: 6.00 Build 0)  -->
<svg version="1.1" id="Capa_1" xmlns="http://www.w3.org/2000/svg" xmlns:xlink="http://www.w3.org/1999/xlink" x="0px" y="0px"
	 viewBox="0 0 512 512" style="enable-background:new 0 0 512 512;" xml:space="preserve">
<path style="fill:#FDD142;" d="M512,256c0,46.791-12.549,90.655-34.482,128.397C433.204,460.695,350.595,512,256,512
	S78.796,460.695,34.482,384.397C12.549,346.655,0,302.791,0,256C0,114.615,114.615,0,256,0S512,114.615,512,256z"/>
<path style="fill:#535454;" d="M477.518,260.462v123.935C433.204,460.695,350.595,512,256,512S78.796,460.695,34.482,384.397
	V260.462H477.518z"/>
<path style="fill:#666666;" d="M460.662,318.976H51.331c-9.308,0-16.853-7.545-16.853-16.853v-62.425
	c0-9.308,7.545-16.853,16.853-16.853h409.331c9.308,0,16.853,7.545,16.853,16.853v62.425
	C477.515,311.431,469.97,318.976,460.662,318.976z"/>
<rect x="144.185" y="256.282" style="fill:#535454;" width="223.619" height="29.257"/>
<path style="fill:#EAEAEA;" d="M442.504,141.019l-144.52,144.52H199.67l-29.247-29.257l-44.502-44.502
	c-7.074-7.064-7.074-18.536,0-25.6L306.792,5.308c7.074-7.074,18.536-7.074,25.61,0l110.101,110.101
	C449.578,122.483,449.578,133.945,442.504,141.019z"/>
<g>
	<path style="fill:#313B57;" d="M280.738,125.695l-28.076-28.076c-2.041-2.041-2.041-5.348,0-7.388l28.076-28.076
		c2.041-2.041,5.348-2.041,7.388,0l28.076,28.076c2.041,2.041,2.041,5.348,0,7.388l-28.076,28.076
		C286.086,127.736,282.778,127.736,280.738,125.695z M263.744,93.925l20.688,20.688l20.688-20.688l-20.688-20.688L263.744,93.925z"
		/>
	<path style="fill:#313B57;" d="M376.049,176.677l-54.675-54.675c-2.041-2.041-2.041-5.348,0-7.388c2.041-2.041,5.348-2.041,7.388,0
		l54.675,54.675c2.041,2.041,2.041,5.348,0,7.388C381.398,178.716,378.09,178.717,376.049,176.677z"/>
	<path style="fill:#313B57;" d="M342.062,175.198l-36.942-36.942c-2.041-2.041-2.041-5.348,0-7.388c2.041-2.041,5.348-2.041,7.388,0
		l36.942,36.942c2.041,2.041,2.041,5.348,0,7.388C347.411,177.239,344.103,177.239,342.062,175.198z"/>
	<path style="fill:#313B57;" d="M235.297,171.134l-28.076-28.076c-2.041-2.041-2.041-5.348,0-7.388l28.076-28.076
		c2.041-2.041,5.348-2.041,7.388,0l28.076,28.076c2.041,2.041,2.041,5.348,0,7.388l-28.076,28.076
		C240.646,173.175,237.338,173.175,235.297,171.134z M218.304,139.364l20.688,20.688l20.688-20.688l-20.688-20.688L218.304,139.364z
		"/>
	<path style="fill:#313B57;" d="M330.61,222.116l-54.675-54.675c-2.041-2.041-2.041-5.348,0-7.388c2.041-2.041,5.348-2.041,7.388,0
		l54.675,54.675c2.041,2.041,2.041,5.348,0,7.388C335.959,224.156,332.651,224.157,330.61,222.116z"/>
	<path style="fill:#313B57;" d="M296.622,220.639l-36.942-36.942c-2.041-2.041-2.041-5.348,0-7.388c2.041-2.041,5.348-2.041,7.388,0
		l36.942,36.942c2.041,2.041,2.041,5.348,0,7.388C301.971,222.678,298.663,222.678,296.622,220.639z"/>
	<path style="fill:#313B57;" d="M189.858,216.574l-28.076-28.076c-2.041-2.041-2.041-5.348,0-7.388l28.076-28.076
		c2.041-2.041,5.348-2.041,7.388,0l28.076,28.076c2.041,2.041,2.041,5.348,0,7.388l-28.076,28.076
		C195.207,218.615,191.899,218.615,189.858,216.574z M172.865,184.804l20.688,20.688l20.688-20.688l-20.688-20.688L172.865,184.804z
		"/>
	<path style="fill:#313B57;" d="M285.17,267.556l-54.675-54.675c-2.041-2.041-2.041-5.348,0-7.388c2.041-2.041,5.348-2.041,7.388,0
		l54.675,54.675c2.041,2.041,2.041,5.348,0,7.388C290.519,269.596,287.211,269.596,285.17,267.556z"/>
	<path style="fill:#313B57;" d="M251.183,266.078l-36.942-36.942c-2.041-2.041-2.041-5.348,0-7.388c2.041-2.041,5.348-2.041,7.388,0
		l36.942,36.942c2.041,2.041,2.041,5.348,0,7.388C256.532,268.118,253.224,268.118,251.183,266.078z"/>
</g>
<path style="fill:#F64C4C;" d="M227.909,150.448c-0.946-0.946-1.531-2.252-1.53-3.694v-28.076c0-2.886,2.338-5.224,5.224-5.224
	c2.884-0.001,5.226,2.34,5.223,5.223v22.852h42.432c2.884-0.001,5.226,2.34,5.223,5.223c0,2.886-2.338,5.226-5.224,5.225h-47.656
	C230.161,151.978,228.855,151.393,227.909,150.448z"/>
<circle style="fill:#50B4A3;" cx="89.861" cy="85.159" r="83.592"/>
<path style="fill:#FFFFFF;" d="M66.416,130.893l-21.048-25.257c-3.695-4.434-3.095-11.022,1.337-14.716l0.001-0.001
	c4.434-3.694,11.022-3.095,14.715,1.339l12.468,14.961l45.26-62.123c3.398-4.664,9.934-5.691,14.598-2.293l0,0
	c4.664,3.398,5.691,9.934,2.293,14.597l-53.152,72.957C78.881,135.857,70.772,136.12,66.416,130.893z"/>
<g>
</g>
<g>
</g>
<g>
</g>
<g>
</g>
<g>
</g>
<g>
</g>
<g>
</g>
<g>
</g>
<g>
</g>
<g>
</g>
<g>
</g>
<g>
</g>
<g>
</g>
<g>
</g>
<g>
</g>
</svg>
